<svg xmlns="http://www.w3.org/2000/svg" width="512" height="512" viewBox="0 0 512 512"><g fill="none" stroke="#fff" stroke-width="5" stroke-linejoin="round"><path d="M256,88 m-34,0 a34,34 0 1,0 68,0 a34,34 0 1,0 -68,0"/><path d="M245,116 L245,150 A11,11 0 0 0 267,150 L267,116 A11,11 0 0 1 245,116 Z"/><path d="M190,150 C212,138 300,138 322,150 C330,176 320,212 312,242 C308,264 316,288 314,306 C282,318 230,318 198,306 C196,288 204,264 200,242 C192,212 182,176 190,150 Z"/><path d="M220.1,309.9 L212.1,401.9 A24,24 0 0 0 219.1,402 L215.1,436 A15,15 0 0 0 246.9,439.8 L252.9,406 A17,17 0 0 1 259.9,406.1 L267.9,314.1 A24,24 0 0 1 220.1,309.9 Z"/><path d="M244.1,314.1 L252.1,406.1 A24,24 0 0 1 259.1,406 L263.1,440 A15,15 0 0 0 294.9,436.2 L292.9,402 A17,17 0 0 0 299.9,401.9 L291.9,309.9 A24,24 0 0 1 244.1,314.1 Z"/><path d="M228.1,427.5 L198.1,435.5 A13,13 0 0 0 205.3,462.6 L235.9,456.5 A15,15 0 0 1 228.1,427.5 Z"/><path d="M276.1,456.5 L306.1,464.5 A13,13 0 0 0 313.3,437.4 L283.9,427.5 A15,15 0 0 1 276.1,456.5 Z"/><path d="M298.2,179 L324.2,253 A21,21 0 0 0 328.1,247.9 L334.1,297.9 A13,13 0 0 0 362.9,294.5 L359.9,244.1 A16,16 0 0 1 363.8,239 L337.8,165 A21,21 0 0 1 298.2,179 Z"/><path d="M198,149 L112,149 A19,19 0 0 0 112,189 L198,191 A21,21 0 0 1 198,149 Z"/><path d="M129,170 L129,72 A14,14 0 0 0 98,72 L95,170 A17,17 0 0 1 129,170 Z"/><path d="M76,76 L148,76 A4,4 0 0 0 148,68 L76,68 A4,4 0 0 1 76,76 Z"/><path d="M69.5,58 L69.5,86 A6.5,6.5 0 0 0 82.5,86 L82.5,58 A6.5,6.5 0 0 1 69.5,58 Z"/><path d="M141.5,58 L141.5,86 A6.5,6.5 0 0 0 154.5,86 L154.5,58 A6.5,6.5 0 0 1 141.5,58 Z"/></g></svg>
